<svg width="212" height="81" viewBox="0 0 212 81" fill="none" xmlns="http://www.w3.org/2000/svg">
<g filter="url(#filter0_d_74_312)">
<path d="M52.4418 46.7984C52.2018 45.6636 51.2261 45.0744 50.2627 45.4824L34.5617 52.1315C33.5982 52.5395 33.0117 53.7902 33.2517 54.925C33.4917 56.0597 34.4674 56.6489 35.4309 56.2409L49.3873 50.3306L52.8641 66.7684C53.1041 67.9032 54.0798 68.4923 55.0432 68.0843C56.0067 67.6763 56.5932 66.4256 56.3532 65.2908L52.4418 46.7984ZM52.8074 20.509C50.3706 15.313 46.4977 11.4214 41.7925 9.44091L40.3177 13.584C44.2991 15.2598 47.5761 18.5527 49.638 22.9493L52.8074 20.509ZM41.7925 9.44091C37.0873 7.46046 31.8143 7.50245 26.7954 9.56034L27.6278 13.6851C31.8746 11.9438 36.3364 11.9082 40.3177 13.584L41.7925 9.44091ZM26.7954 9.56034C21.7765 11.6182 17.2938 15.5764 14.0462 20.8177L16.8401 23.2105C19.588 18.7756 23.3811 15.4264 27.6278 13.6851L26.7954 9.56034ZM14.0462 20.8177C10.7985 26.059 8.96847 32.289 8.84128 38.5364L12.4359 38.2033C12.5436 32.917 14.0921 27.6455 16.8401 23.2105L14.0462 20.8177ZM8.84128 38.5364C8.71409 44.7838 10.2969 50.6974 13.343 55.3555L16.2451 52.4348C13.6676 48.4934 12.3283 43.4895 12.4359 38.2033L8.84128 38.5364ZM13.343 55.3555C16.3891 60.0136 20.7272 63.1543 25.6811 64.288L26.685 59.9931C22.4933 59.0338 18.8225 56.3763 16.2451 52.4348L13.343 55.3555ZM25.6811 64.288C30.635 65.4217 35.9263 64.4847 40.7301 61.623L39.4188 57.7381C35.3541 60.1595 30.8768 60.9524 26.685 59.9931L25.6811 64.288ZM40.7301 61.623C45.5339 58.7613 49.5802 54.1359 52.2381 48.4677L49.1564 46.6066C46.9073 51.4028 43.4835 55.3167 39.4188 57.7381L40.7301 61.623Z" fill="#99CB3C"/>
</g>
<path d="M81.835 47.9336C75.3037 47.9336 71.2412 43.3867 71.2412 36.1054V36.0742C71.2412 28.8711 75.3506 24.2617 81.7725 24.2617C86.9756 24.2617 90.7256 27.2461 91.4912 31.6523L91.5068 31.8086H87.5068L87.46 31.6523C86.7256 29.1836 84.6631 27.7461 81.7725 27.7461C77.835 27.7461 75.3506 30.9492 75.3506 36.0429V36.0742C75.3506 41.2461 77.8818 44.4492 81.8975 44.4492C85.335 44.4492 87.6787 42.3086 87.7256 39.1054L87.7412 38.6367H82.335V35.5586H91.6943V38.3711C91.6943 44.1992 87.8506 47.9336 81.835 47.9336ZM103.351 47.7148C98.2256 47.7148 95.1318 44.3711 95.1318 38.8398V38.8086C95.1318 33.3242 98.2725 29.9648 103.351 29.9648C108.444 29.9648 111.569 33.3086 111.569 38.8086V38.8398C111.569 44.3711 108.46 47.7148 103.351 47.7148ZM103.351 44.5586C106.054 44.5586 107.585 42.4492 107.585 38.8554V38.8242C107.585 35.2304 106.038 33.1054 103.351 33.1054C100.647 33.1054 99.1006 35.2304 99.1006 38.8242V38.8554C99.1006 42.4492 100.647 44.5586 103.351 44.5586ZM122.851 47.7148C117.726 47.7148 114.632 44.3711 114.632 38.8398V38.8086C114.632 33.3242 117.772 29.9648 122.851 29.9648C127.944 29.9648 131.069 33.3086 131.069 38.8086V38.8398C131.069 44.3711 127.96 47.7148 122.851 47.7148ZM122.851 44.5586C125.554 44.5586 127.085 42.4492 127.085 38.8554V38.8242C127.085 35.2304 125.538 33.1054 122.851 33.1054C120.147 33.1054 118.601 35.2304 118.601 38.8242V38.8554C118.601 42.4492 120.147 44.5586 122.851 44.5586ZM141.132 47.6523C136.851 47.6523 134.132 44.2617 134.132 38.8554V38.8242C134.132 33.3867 136.804 30.0117 141.132 30.0117C143.476 30.0117 145.429 31.1679 146.319 33.0117H146.585V23.6836H150.491V47.3711H146.585V44.6992H146.319C145.382 46.5586 143.538 47.6523 141.132 47.6523ZM142.351 44.3711C145.007 44.3711 146.647 42.2773 146.647 38.8554V38.8242C146.647 35.4023 144.991 33.2929 142.351 33.2929C139.71 33.2929 138.085 35.3867 138.085 38.8242V38.8554C138.085 42.2929 139.694 44.3711 142.351 44.3711ZM161.397 47.9336C157.022 47.9336 154.413 45.2929 154.257 41.4336L154.241 41.2617H158.179L158.194 41.3711C158.304 43.1054 159.366 44.4023 161.366 44.4023C163.538 44.4023 164.694 43.0898 164.694 40.6523V24.8242H168.726V40.6836C168.726 45.2461 166.022 47.9336 161.397 47.9336ZM181.007 47.7148C175.882 47.7148 172.788 44.3711 172.788 38.8398V38.8086C172.788 33.3242 175.929 29.9648 181.007 29.9648C186.101 29.9648 189.226 33.3086 189.226 38.8086V38.8398C189.226 44.3711 186.116 47.7148 181.007 47.7148ZM181.007 44.5586C183.71 44.5586 185.241 42.4492 185.241 38.8554V38.8242C185.241 35.2304 183.694 33.1054 181.007 33.1054C178.304 33.1054 176.757 35.2304 176.757 38.8242V38.8554C176.757 42.4492 178.304 44.5586 181.007 44.5586ZM202.632 47.6523C200.241 47.6523 198.382 46.5586 197.444 44.6992H197.179V47.3711H193.288V23.6836H197.179V33.0117H197.444C198.335 31.1679 200.288 30.0117 202.632 30.0117C206.96 30.0117 209.647 33.3867 209.647 38.8242V38.8554C209.647 44.2617 206.913 47.6523 202.632 47.6523ZM201.413 44.3711C204.069 44.3711 205.679 42.2929 205.679 38.8554V38.8242C205.679 35.3867 204.069 33.2929 201.413 33.2929C198.772 33.2929 197.132 35.4023 197.132 38.8242V38.8554C197.132 42.2773 198.772 44.3711 201.413 44.3711Z" fill="#262626"/>
<defs>
<filter id="filter0_d_74_312" x="0.834167" y="3.98563" width="63.5728" height="76.2281" filterUnits="userSpaceOnUse" color-interpolation-filters="sRGB">
<feFlood flood-opacity="0" result="BackgroundImageFix"/>
<feColorMatrix in="SourceAlpha" type="matrix" values="0 0 0 0 0 0 0 0 0 0 0 0 0 0 0 0 0 0 127 0" result="hardAlpha"/>
<feOffset dy="4"/>
<feGaussianBlur stdDeviation="4"/>
<feComposite in2="hardAlpha" operator="out"/>
<feColorMatrix type="matrix" values="0 0 0 0 0.6 0 0 0 0 0.796078 0 0 0 0 0.235294 0 0 0 1 0"/>
<feBlend mode="normal" in2="BackgroundImageFix" result="effect1_dropShadow_74_312"/>
<feBlend mode="normal" in="SourceGraphic" in2="effect1_dropShadow_74_312" result="shape"/>
</filter>
</defs>
</svg>
