<svg width="50" height="47" viewBox="0 0 50 47" fill="none" xmlns="http://www.w3.org/2000/svg">
<path d="M0 8C0 3.58172 3.58172 0 8 0H42C46.4183 0 50 3.58172 50 8V39C50 43.4183 46.4183 47 42 47H8C3.58172 47 0 43.4183 0 39V8Z" fill="#99CB3C"/>
<path d="M8 10.5C8 9.11929 9.11929 8 10.5 8H39.5C40.8807 8 42 9.11929 42 10.5V10.5C42 11.8807 40.8807 13 39.5 13H10.5C9.11929 13 8 11.8807 8 10.5V10.5Z" fill="white"/>
<path d="M8 23.5C8 22.1193 9.11929 21 10.5 21H39.5C40.8807 21 42 22.1193 42 23.5V23.5C42 24.8807 40.8807 26 39.5 26H10.5C9.11929 26 8 24.8807 8 23.5V23.5Z" fill="white"/>
<path d="M8 36.5C8 35.1193 9.11929 34 10.5 34H39.5C40.8807 34 42 35.1193 42 36.5V36.5C42 37.8807 40.8807 39 39.5 39H10.5C9.11929 39 8 37.8807 8 36.5V36.5Z" fill="white"/>
</svg>
